<?xml version="1.0" encoding="utf-8"?>
<!-- Generator: Adobe Illustrator 22.0.1, SVG Export Plug-In . SVG Version: 6.00 Build 0)  -->
<svg version="1.1" id="Layer_1" xmlns="http://www.w3.org/2000/svg" xmlns:xlink="http://www.w3.org/1999/xlink" x="0px" y="0px"
	 viewBox="0 0 138.4 79.4" style="enable-background:new 0 0 138.4 79.4;" xml:space="preserve">
<style type="text/css">
	.st0{fill:#242020;}
	.st1{fill:#006D65;}
</style>
<g>
	<path class="st0" d="M38.5,27.6H12.7l0.6-17.7h18.3c2.5,0,4.6,0.2,6.7,0.3l3.6,0.2L42.4,1H2.3v1.5c0,16.8-1.4,51.4-2.1,59.8L0,64
		h11.9v-1.5c0-4.1,0.2-17.4,0.6-26h9.2c4.9,0,10,0,15,0.3l1.5,0.1L38.5,27.6z"/>
	<path class="st0" d="M68.2,28.8c-5.6-4.4-10.9-8.6-10.9-13.1c0-3.3,3.4-6.7,9.8-6.7c3.7,0,7.6,0.7,11.7,2.2l2.2,0.8L80.2,1.6
		L79,1.4C75.2,0.7,70.8,0,66.3,0C53.4,0,46.1,6.1,46.1,16.6c0,7.3,7.3,13.3,14.4,19c5.3,4.3,10.8,8.7,10.8,12.5
		c0,6.5-5.9,7.8-10.9,7.8c-5.4,0-10.9-2-14.5-3.7l-2.4-1.1l0.9,11l1,0.3c5,1.3,10.3,2.6,15.9,2.6c10.2,0,21.2-4.3,21.2-16.4
		C82.6,40.2,75,34.2,68.2,28.8z"/>
	<path class="st0" d="M122.1,9.7c4.2,0,8.6,0.8,14.2,2.5l2.1,0.6l-0.7-10.2l-1.1-0.2c-5.4-1.1-10.3-1.7-14.9-1.7
		c-21.9,0-35.5,13.1-35.5,34.1c0,19,12.7,30.8,33.2,30.8c5.5,0,10.8-0.9,15.8-1.8l1-0.2l1.6-10.3l-2.3,0.7c-5.8,1.8-11,2.6-15.8,2.6
		c-13.7,0-22.1-8.6-22.1-22.4C97.5,19.3,107.1,9.7,122.1,9.7z"/>
</g>
<polygon class="st1" points="0.6,75.2 0.6,79.4 136.9,79.4 136.9,75.2 0.6,75.2 "/>
</svg>
